<?xml version="1.0" encoding="UTF-8"?>
<svg id="Layer_2" data-name="Layer 2" xmlns="http://www.w3.org/2000/svg" viewBox="0 0 20.96 36.09">
  <defs>
    <style>
      .cls-1 {
        stroke-miterlimit: 10;
      }

      .cls-1, .cls-2 {
        fill: #231f20;
        stroke: #231f20;
      }

      .cls-2 {
        stroke-linejoin: round;
      }
    </style>
  </defs>
  <g id="Layer_2-2" data-name="Layer 2">
    <g>
      <path class="cls-1" d="m12.03,30.91c.07-.21.11-.42.15-.63.12-.8-.02-1.63-.48-2.31-.69-1.02-2.17-1.91-5.3-.89-5.7,1.86-5.86,5.04-5.86,5.04,0,0-.55,3.73,3.51,3.45s5.42-1.26,6.74-2.68c.76-.83,1.08-1.43,1.26-1.98Z"/>
      <path class="cls-2" d="m12.18,29.39l-.11-21.62v-.42s-.04-6.86-.04-6.86c2.09,4.5,4.15,7.75,5.68,9.93,1.21,1.72,2.27,3.03,2.62,5.2.45,2.75-.56,5.72-.82,6.5-.28.85-.58,1.54-.79,1.99.35-1.08.56-1.99.69-2.63.33-1.64.56-2.8.33-4.26-.07-.44-.21-1.3-.68-2.26-1.07-2.17-2.66-2.47-5.08-4.92-.58-.59-1.24-1.34-1.92-2.27"/>
    </g>
  </g>
</svg>