<svg width="1999" height="86" viewBox="0 0 1999 86" fill="none" xmlns="http://www.w3.org/2000/svg">
<path d="M1997.11 1.02344H1.17139V82.4859H1997.11V1.02344Z" fill="white" stroke="#8AC4D0" stroke-width="2" stroke-linecap="round" stroke-linejoin="round"/>
<rect y="62" width="1997" height="19" fill="#8AC4D0" fill-opacity="0.5"/>
<rect y="22" width="1997" height="20" fill="#7CBF70" fill-opacity="0.5"/>
<path d="M468.167 1V81.9003" stroke="#8AC4D0" stroke-width="2" stroke-linecap="round" stroke-linejoin="round"/>
<path d="M850.508 1.32788V82.2516" stroke="#8AC4D0" stroke-width="2" stroke-linecap="round" stroke-linejoin="round"/>
<path d="M1232.43 1.25769V82.158" stroke="#8AC4D0" stroke-width="2" stroke-linecap="round" stroke-linejoin="round"/>
<path d="M1614.84 1.23425V82.1346" stroke="#8AC4D0" stroke-width="2" stroke-linecap="round" stroke-linejoin="round"/>
<path d="M1.31201 21.4944H1997.04" stroke="#8AC4D0" stroke-width="2" stroke-linecap="round" stroke-linejoin="round"/>
<path d="M1.17139 42.1294H1996.9" stroke="#8AC4D0" stroke-width="2" stroke-linecap="round" stroke-linejoin="round"/>
<path d="M1.26514 62.2491H1996.99" stroke="#8AC4D0" stroke-width="2" stroke-linecap="round" stroke-linejoin="round"/>
<path d="M17.7207 36.1406C16.0332 36.1406 14.9082 35.4375 14.5801 34.4766C14.5273 34.3359 14.498 34.1836 14.498 34.043C14.498 33.6211 14.7676 33.3516 15.166 33.3516C15.5 33.3516 15.7109 33.4863 15.875 33.8262C16.1387 34.5586 16.8652 34.8867 17.7676 34.8867C18.7871 34.8867 19.502 34.3828 19.502 33.6797C19.502 33.0703 19.0801 32.6953 17.9785 32.4668L17.0703 32.2793C15.377 31.9336 14.5859 31.1367 14.5859 29.9004C14.5859 28.4121 15.8926 27.4043 17.7266 27.4043C19.2207 27.4043 20.3809 28.0723 20.7266 29.1914C20.7617 29.2852 20.7793 29.3965 20.7793 29.5371C20.7793 29.9062 20.5156 30.1582 20.123 30.1582C19.7715 30.1582 19.5547 30.0059 19.3965 29.6777C19.1094 28.9629 18.5059 28.6582 17.7148 28.6582C16.7773 28.6582 16.1094 29.1035 16.1094 29.8125C16.1094 30.3867 16.5312 30.7559 17.5859 30.9785L18.4941 31.166C20.2754 31.5352 21.0254 32.25 21.0254 33.5039C21.0254 35.1211 19.7539 36.1406 17.7207 36.1406ZM22.8945 36.0996C22.4375 36.0996 22.1621 35.8184 22.1621 35.3379V28.2246C22.1621 27.7383 22.4609 27.4453 22.9473 27.4453C23.2812 27.4453 23.4863 27.5625 23.7324 27.8965L27.6699 33.4688H27.7227V28.207C27.7227 27.7266 27.998 27.4453 28.4492 27.4453C28.9062 27.4453 29.1758 27.7266 29.1758 28.207V35.3438C29.1758 35.8242 28.9004 36.0996 28.4082 36.0996C28.0625 36.0996 27.8633 35.9883 27.623 35.6484L23.6738 30.0703H23.6211V35.3379C23.6211 35.8184 23.3457 36.0996 22.8945 36.0996ZM31.0391 36.0996C30.5762 36.0996 30.2773 35.8301 30.2773 35.4023C30.2773 35.2852 30.3066 35.1211 30.377 34.9395L32.832 28.2656C33.0371 27.7031 33.377 27.4453 33.9277 27.4453C34.4844 27.4453 34.8242 27.6914 35.0352 28.2598L37.4961 34.9395C37.5664 35.1328 37.5957 35.2676 37.5957 35.4023C37.5957 35.8125 37.2793 36.0996 36.8398 36.0996C36.4297 36.0996 36.2012 35.9121 36.0664 35.4609L35.5098 33.8438H32.3516L31.7949 35.4492C31.6543 35.9062 31.4316 36.0996 31.0391 36.0996ZM32.709 32.6484H35.1406L33.9395 29.0391H33.8984L32.709 32.6484ZM39.4531 36.1172C38.9844 36.1172 38.6973 35.8242 38.6973 35.332V28.3301C38.6973 27.8379 38.9844 27.5449 39.4531 27.5449H42.0547C43.8828 27.5449 44.9785 28.5586 44.9785 30.1758C44.9785 31.2773 44.416 32.1797 43.4375 32.5605L44.7734 34.9043C44.9023 35.1211 44.9375 35.25 44.9375 35.4258C44.9375 35.8242 44.6094 36.1172 44.1758 36.1172C43.8184 36.1172 43.6426 35.9883 43.4082 35.5723L41.9023 32.8184H40.209V35.332C40.209 35.8242 39.9219 36.1172 39.4531 36.1172ZM40.209 31.6582H41.9141C42.875 31.6582 43.4316 31.125 43.4316 30.2109C43.4316 29.3203 42.8398 28.7695 41.8848 28.7695H40.209V31.6582ZM46.9531 36C46.4844 36 46.1973 35.707 46.1973 35.2148V28.3301C46.1973 27.8379 46.4844 27.5449 46.9531 27.5449H51.0723C51.4883 27.5449 51.7637 27.791 51.7637 28.1836C51.7637 28.5762 51.4883 28.8223 51.0723 28.8223H47.709V31.1074H50.8965C51.2832 31.1074 51.5469 31.3359 51.5469 31.7051C51.5469 32.0742 51.2891 32.3086 50.8965 32.3086H47.709V34.7227H51.0723C51.4883 34.7227 51.7637 34.9688 51.7637 35.3613C51.7637 35.7539 51.4883 36 51.0723 36H46.9531Z" fill="black" fill-opacity="0.3"/>
<path d="M15.5 75.748C15.0312 75.748 14.7441 75.4609 14.7441 74.9629V67.8789C14.7441 67.3809 15.0312 67.0938 15.5 67.0938C15.9746 67.0938 16.2559 67.3809 16.2559 67.8789V71.0723H16.3086L19.707 67.4043C19.9121 67.1816 20.0938 67.0879 20.3398 67.0879C20.7441 67.0879 21.043 67.3926 21.043 67.7793C21.043 67.9844 20.9727 68.1426 20.7969 68.3301L18.2539 70.9844L21.0488 74.3652C21.2539 74.6172 21.3418 74.8281 21.3418 75.0273C21.3418 75.4375 21.0254 75.7539 20.6152 75.7539C20.3164 75.7539 20.1113 75.6426 19.877 75.3496L17.1348 71.998L16.2559 72.9297V74.9629C16.2559 75.4609 15.9746 75.748 15.5 75.748ZM23.2344 75.748C22.7656 75.748 22.4785 75.4609 22.4785 74.9629V67.8789C22.4785 67.3809 22.7656 67.0938 23.2344 67.0938C23.709 67.0938 23.9902 67.3809 23.9902 67.8789V74.9629C23.9902 75.4609 23.709 75.748 23.2344 75.748ZM29.1406 75.7891C26.6973 75.7891 25.1914 74.1309 25.1914 71.418C25.1914 68.7227 26.7207 67.0527 29.1113 67.0527C30.6758 67.0527 31.9121 67.7852 32.4688 69.0215C32.5625 69.2148 32.6094 69.4141 32.6094 69.5898C32.6094 69.9941 32.3457 70.252 31.9414 70.252C31.5957 70.252 31.3672 70.0879 31.2031 69.7188C30.8105 68.8105 30.043 68.3359 29.123 68.3359C27.6699 68.3359 26.7383 69.5312 26.7383 71.418C26.7383 73.3164 27.6641 74.5059 29.1289 74.5059C30.0957 74.5059 30.8398 74.084 31.2266 73.1934C31.3789 72.8477 31.5723 72.707 31.9004 72.707C32.3164 72.707 32.6035 72.9824 32.6035 73.3809C32.6035 73.5742 32.5566 73.75 32.4629 73.9492C31.9238 75.0977 30.7227 75.7891 29.1406 75.7891ZM34.6719 75.748C34.2031 75.748 33.916 75.4609 33.916 74.9629V67.8789C33.916 67.3809 34.2031 67.0938 34.6719 67.0938C35.1465 67.0938 35.4277 67.3809 35.4277 67.8789V71.0723H35.4805L38.8789 67.4043C39.084 67.1816 39.2656 67.0879 39.5117 67.0879C39.916 67.0879 40.2148 67.3926 40.2148 67.7793C40.2148 67.9844 40.1445 68.1426 39.9688 68.3301L37.4258 70.9844L40.2207 74.3652C40.4258 74.6172 40.5137 74.8281 40.5137 75.0273C40.5137 75.4375 40.1973 75.7539 39.7871 75.7539C39.4883 75.7539 39.2832 75.6426 39.0488 75.3496L36.3066 71.998L35.4277 72.9297V74.9629C35.4277 75.4609 35.1465 75.748 34.6719 75.748Z" fill="black" fill-opacity="0.3"/>
</svg>
